<svg xmlns="http://www.w3.org/2000/svg" viewBox="0 0 200 100" width="200" height="100">
  <!-- 吐露 — dark outline layer -->
  <g stroke="#2a1520" stroke-width="9" stroke-linecap="square" stroke-linejoin="miter" fill="none">
    <!-- 吐: 口 + 土 -->
    <path d="M 28,14 H 48 V 40 H 28 Z M 48,12 H 80 M 64,6 V 54 M 46,54 H 82"/>
    <!-- 露: 雨 -->
    <path d="M 108,6 H 172 V 30 H 108 Z M 140,6 V 30 M 118,13 V 19 M 126,20 V 26 M 152,13 V 19 M 160,20 V 26"/>
    <!-- 露: 足 -->
    <path d="M 110,34 H 132 V 44 H 110 Z M 121,44 V 56 M 108,56 H 124"/>
    <!-- 露: 各 -->
    <path d="M 155,34 L 148,44 M 155,34 L 162,44 M 144,46 H 168 V 56 H 144 Z"/>
  </g>
  <!-- 吐露 — pink stroke layer -->
  <g stroke="#e8a0c8" stroke-width="5" stroke-linecap="square" stroke-linejoin="miter" fill="none">
    <path d="M 28,14 H 48 V 40 H 28 Z M 48,12 H 80 M 64,6 V 54 M 46,54 H 82"/>
    <path d="M 108,6 H 172 V 30 H 108 Z M 140,6 V 30 M 118,13 V 19 M 126,20 V 26 M 152,13 V 19 M 160,20 V 26"/>
    <path d="M 110,34 H 132 V 44 H 110 Z M 121,44 V 56 M 108,56 H 124"/>
    <path d="M 155,34 L 148,44 M 155,34 L 162,44 M 144,46 H 168 V 56 H 144 Z"/>
  </g>
  <!-- TORO pixel art -->
  <g fill="#e8a0c8" opacity="0.6">
    <!-- T -->
    <rect x="66" y="66" width="15" height="3"/>
    <rect x="72" y="69" width="3" height="18"/>
    <!-- O -->
    <rect x="87" y="66" width="9" height="3"/>
    <rect x="84" y="69" width="3" height="15"/>
    <rect x="96" y="69" width="3" height="15"/>
    <rect x="87" y="84" width="9" height="3"/>
    <!-- R -->
    <rect x="102" y="66" width="12" height="3"/>
    <rect x="102" y="69" width="3" height="18"/>
    <rect x="114" y="69" width="3" height="6"/>
    <rect x="102" y="75" width="12" height="3"/>
    <rect x="108" y="78" width="3" height="3"/>
    <rect x="111" y="81" width="3" height="3"/>
    <rect x="114" y="84" width="3" height="3"/>
    <!-- O -->
    <rect x="123" y="66" width="9" height="3"/>
    <rect x="120" y="69" width="3" height="15"/>
    <rect x="132" y="69" width="3" height="15"/>
    <rect x="123" y="84" width="9" height="3"/>
  </g>
</svg>
